# xmcd
#
# Track frame offsets:
#	150
#	11115
#	27025
#	37717
#	48377
#	59370
#	71570
#	83800
#	96217
#	107020
#	117672
#	129555
#	149647
#	159447
#	177157
#	202207
#	219452
#	232955
#
# Disc length: 3316
#
# Revision: 1
# Processed by: cddbd v1.5.1PL0 Copyright (c) Steve Scherf et al.
# Submitted via: dBpowerAMP V4.0
# Normalized: r0:TDELIM( - )
#
DISCID=fd0cf212
DTITLE=Various Artist - Roll On Down The Highway
DYEAR=1995
DGENRE=Country
TTITLE0=Roger Miller - King Of The Road
TTITLE1=Tom Jones - Detroit City
TTITLE2=Fats Domino - Blueberry Hill
TTITLE3=Sam The Sham and Pharoahs - Woolly Bully
TTITLE4=Dusty Springfield - Son Of A Preacher Man
TTITLE5=Hank Williams - Your Cheatin' Heart
TTITLE6=Carl Perkins - Ruby Don't Take Your Love To Town
TTITLE7=Georgie Fame - Yeh Yeh
TTITLE8=JJ Cale - After Midnight
TTITLE9=Jerry Lee Lewis - Hit The Road Jack
TTITLE10=Platters - The Great Pretender
TTITLE11=Johnny Cash - Let Him Roll
TTITLE12=Dave Dudley - Truck Drivin' Son-Of-A-Gun
TTITLE13=Bachman Turner Overdrive - Roll On Down The Highway
TTITLE14=Cher - Hell On Wheels
TTITLE15=C.W. McCall - Convoy
TTITLE16=Faron Young - It's Four In The Morning
TTITLE17=Peters and Lee - Welcome Home
EXTD=18 Great trucking songs
EXTT0=
EXTT1=
EXTT2=
EXTT3=
EXTT4=
EXTT5=
EXTT6=
EXTT7=
EXTT8=
EXTT9=
EXTT10=
EXTT11=
EXTT12=
EXTT13=
EXTT14=
EXTT15=
EXTT16=
EXTT17=
PLAYORDER=
